:SAMPLES-PER-SECOND 30
:FULLY-SPECIFIED
:DEGREES
113
root  -4.44554 40.8578 -1.75305 -3.63362 -73.0444 4.33478
RightUpLeg  5.76518 -2.52568 1.10969
RightLeg  -4.15046 -38.2343 4.4935
RightFoot  -2.85755 -0.0434781 0.323672
RightToes  -3.10678e-008 1.75238e-005 3.56266e-009
Spine  -2.40121 0.921847 -7.22222
Spine1  -0.773482 -0.150297 9.4183
HEad  -6.30892 7.31039 -3.68921
LeftShoulder1  2.10157 -3.43548 -24.0639
LeftArm  -22.5342 -11.6497 -43.8534
LeftForeArm  125.078 -78.9187 -118.417
LeftHand  -0.546037 -3.58538 7.32102
RightShoulder  2.91327 5.49427 26.3611
RightArm  -9.29372 -19.8339 39.8748
RightForeArm  83.3187 79.7101 87.1694
RightHand  -0.223743 8.14694 -2.28925
LeftUpLeg  0.757602 1.22647 3.73084
LeftLeg  -1.29217 0.455119 -0.2899
LeftFoot  0.0758099 0.567476 -5.68001
LeftToes  4.7643e-008 1.47522e-008 1.32869e-009
114
root  -4.49434 40.8725 -1.57834 -3.53114 -75.0849 3.95872
RightUpLeg  6.05288 -2.25892 1.14036
RightLeg  -4.0755 -36.5817 4.09159
RightFoot  -2.58462 -0.0472521 0.401047
RightToes  -3.10678e-008 1.75238e-005 3.56266e-009
Spine  -2.67646 1.00155 -6.76772
Spine1  -0.996225 -0.0933322 9.50455
HEad  -7.31493 5.7319 -3.09712
LeftShoulder1  2.11124 -3.503 -23.9015
LeftArm  -22.3301 -11.2815 -43.6415
LeftForeArm  123.959 -79.0259 -117.319
LeftHand  -0.589691 -3.7558 7.73192
RightShoulder  2.91959 5.50042 26.4104
RightArm  -8.93885 -19.5661 39.9961
RightForeArm  82.7263 79.6771 87.3256
RightHand  -0.177561 7.85048 -1.92624
LeftUpLeg  1.59652 1.52559 3.82389
LeftLeg  -1.42533 2.08516 -0.455156
LeftFoot  -0.196105 0.513046 -5.24366
LeftToes  4.7643e-008 1.47522e-008 1.32869e-009
115
root  -4.50439 40.8751 -1.43997 -2.75494 -76.9682 2.97702
RightUpLeg  6.23778 -2.20479 1.15046
RightLeg  -4.1156 -34.8172 4.09528
RightFoot  -2.411 -0.0435147 0.362215
RightToes  -3.10678e-008 1.75238e-005 3.56266e-009
Spine  -2.77722 0.81065 -6.41875
Spine1  -1.04887 -0.351719 9.73961
HEad  -8.81168 3.8348 -2.6454
LeftShoulder1  2.14239 -3.60419 -23.9121
LeftArm  -22.354 -10.5867 -42.9368
LeftForeArm  124.035 -78.9723 -117.705
LeftHand  -0.668635 -4.08479 8.45337
RightShoulder  3.0052 5.71324 26.5975
RightArm  -8.33908 -19.2397 39.8674
RightForeArm  81.9022 79.6617 86.7057
RightHand  -0.210521 7.87019 -2.21124
LeftUpLeg  1.93281 1.70507 3.95944
LeftLeg  -0.978394 3.69088 -0.404581
LeftFoot  -0.494543 0.448228 -4.69118
LeftToes  4.7643e-008 1.47522e-008 1.32869e-009
116
root  -4.47517 40.8861 -1.33944 -2.22655 -79.0257 2.112
RightUpLeg  6.4032 -2.09158 1.15707
RightLeg  -3.9297 -32.9857 3.8674
RightFoot  -2.21744 -0.0446635 0.398993
RightToes  -3.10678e-008 1.75238e-005 3.56266e-009
Spine  -2.48085 0.709981 -6.56681
Spine1  -1.10513 -0.575448 10.3478
HEad  -10.4446 2.46879 -2.11545
LeftShoulder1  2.0812 -3.40554 -23.8909
LeftArm  -22.7862 -10.7253 -43.5722
LeftForeArm  123.769 -78.9603 -117.687
LeftHand  -0.560258 -3.76078 7.37729
RightShoulder  3.08607 5.93476 26.6902
RightArm  -7.87258 -18.899 39.872
RightForeArm  80.8326 79.6633 85.1748
RightHand  -0.211404 7.97112 -2.2069
LeftUpLeg  2.4375 1.96036 4.12204
LeftLeg  -0.688874 5.38011 -0.455605
LeftFoot  -0.690832 0.436133 -4.63394
LeftToes  4.7643e-008 1.47522e-008 1.32869e-009
117
root  -4.4236 40.8952 -1.26704 -0.822647 -80.8134 0.706665
RightUpLeg  6.23631 -1.9323 1.25571
RightLeg  -3.99961 -31.5921 3.86908
RightFoot  -1.94053 -0.0363969 0.288754
RightToes  -3.10678e-008 1.75238e-005 3.56266e-009
Spine  -2.67391 0.588831 -6.48057
Spine1  -0.60527 -0.778176 10.4977
HEad  -12.0722 0.416676 -1.19058
LeftShoulder1  2.03713 -3.26832 -23.8481
LeftArm  -22.4496 -10.4686 -43.3961
LeftForeArm  124.676 -78.7523 -119.34
LeftHand  -0.607421 -3.54033 8.14786
RightShoulder  3.17063 6.13842 26.8836
RightArm  -7.53183 -18.4531 39.8033
RightForeArm  79.6573 79.6466 83.8793
RightHand  -0.198351 7.99983 -2.08964
LeftUpLeg  2.47131 2.16163 4.29438
LeftLeg  -0.368105 6.80498 -0.452979
LeftFoot  -0.776866 0.405645 -4.33695
LeftToes  4.7643e-008 1.47522e-008 1.32869e-009
118
root  -4.39053 40.9005 -1.21236 -0.476135 -82.5576 0.294388
RightUpLeg  6.05854 -1.87729 1.17681
RightLeg  -3.7477 -30.0604 3.62685
RightFoot  -1.8071 -0.0252432 0.132196
RightToes  -3.10678e-008 1.75238e-005 3.56266e-009
Spine  -2.52024 0.738679 -6.62681
Spine1  -0.613328 -0.648984 10.608
HEad  -13.1479 -1.69075 -0.458849
LeftShoulder1  2.09011 -3.45465 -23.8018
LeftArm  -22.439 -10.2787 -43.1034
LeftForeArm  125.171 -78.7296 -119.643
LeftHand  -0.609141 -3.67365 8.05697
RightShoulder  3.17258 6.15238 26.8539
RightArm  -7.18251 -18.4778 39.875
RightForeArm  79.6015 79.656 83.4253
RightHand  -0.195158 7.84533 -2.07658
LeftUpLeg  2.80428 2.25507 4.27706
LeftLeg  -0.385073 8.46385 -0.519296
LeftFoot  -0.809453 0.3803 -4.07372
LeftToes  4.7643e-008 1.47522e-008 1.32869e-009
119
root  -4.32572 40.9034 -1.17094 -0.132309 -83.5004 0.0374908
RightUpLeg  5.76986 -1.87348 1.05433
RightLeg  -3.61072 -29.0978 3.54532
RightFoot  -1.74198 -0.0296341 0.22702
RightToes  -3.10678e-008 1.75238e-005 3.56266e-009
Spine  -2.4915 0.648846 -6.7638
Spine1  -0.4042 -0.744938 10.5339
HEad  -13.9322 -3.0164 0.187873
LeftShoulder1  2.09843 -3.46489 -23.8802
LeftArm  -22.5439 -10.7339 -43.2816
LeftForeArm  124.545 -78.7665 -119.203
LeftHand  -0.557219 -3.44171 7.57654
RightShoulder  3.11509 6.02306 26.6917
RightArm  -6.62272 -18.3352 40.0927
RightForeArm  80.001 79.6574 84.069
RightHand  -0.313048 7.86869 -3.10751
LeftUpLeg  2.75511 2.26823 4.22001
LeftLeg  -0.378627 9.361 -0.561688
LeftFoot  -0.782807 0.372231 -3.97844
LeftToes  4.7643e-008 1.47522e-008 1.32869e-009
120
root  -4.26776 40.9115 -1.15091 0.721893 -84.2096 -0.857452
RightUpLeg  5.80621 -1.87613 1.03429
RightLeg  -3.88495 -28.3636 3.70692
RightFoot  -1.54716 -0.0292046 0.255127
RightToes  -3.10678e-008 1.75238e-005 3.56266e-009
Spine  -2.28353 0.579268 -6.6374
Spine1  -0.312495 -0.770727 10.1018
HEad  -14.2959 -4.11198 0.76765
LeftShoulder1  2.05277 -3.40797 -23.4466
LeftArm  -22.4405 -10.7385 -43.6108
LeftForeArm  124.402 -78.9455 -118.007
LeftHand  -0.555701 -3.4794 7.52516
RightShoulder  3.17287 6.11576 26.9883
RightArm  -6.69105 -18.0092 40.0597
RightForeArm  78.5737 79.6118 83.2566
RightHand  -0.300411 7.81398 -3.00669
LeftUpLeg  2.90417 2.37644 4.29897
LeftLeg  -0.557087 9.8976 -0.654453
LeftFoot  -0.748323 0.373571 -3.9882
LeftToes  4.7643e-008 1.47522e-008 1.32869e-009
121
root  -4.19246 40.9162 -1.12712 0.998367 -84.8637 -1.14105
RightUpLeg  5.65495 -1.82547 0.984496
RightLeg  -3.8537 -27.6405 3.62134
RightFoot  -1.42396 -0.0202918 0.13881
RightToes  -3.10678e-008 1.75238e-005 3.56266e-009
Spine  -2.12716 0.606697 -6.82674
Spine1  -0.227876 -0.775838 10.2263
HEad  -14.6363 -4.92229 0.754393
LeftShoulder1  2.08843 -3.46572 -23.7272
LeftArm  -22.4026 -10.4507 -43.4437
LeftForeArm  124.628 -78.8504 -118.703
LeftHand  -0.608574 -3.39038 8.29371
RightShoulder  3.1914 6.2002 26.887
RightArm  -6.56181 -17.6784 40.141
RightForeArm  77.1342 79.584 81.5138
RightHand  -0.331832 7.68476 -3.30842
LeftUpLeg  2.96682 2.3858 4.25421
LeftLeg  -0.689017 10.5948 -0.70674
LeftFoot  -0.699881 0.380348 -4.03912
LeftToes  4.7643e-008 1.47522e-008 1.32869e-009
122
root  -4.11834 40.9223 -1.09759 0.287079 -85.4396 -0.47522
RightUpLeg  5.51351 -1.78207 0.848155
RightLeg  -3.6889 -26.8887 3.39938
RightFoot  -1.32384 -0.0206036 0.132131
RightToes  -3.10678e-008 1.75238e-005 3.56266e-009
Spine  -1.94039 0.735192 -6.59999
Spine1  -0.0694803 -0.594862 9.71722
HEad  -13.8133 -5.34924 0.283769
LeftShoulder1  2.06304 -3.40028 -23.6342
LeftArm  -22.1419 -10.6015 -43.2978
LeftForeArm  124.197 -78.8869 -118.321
LeftHand  -0.616969 -3.50402 8.30436
RightShoulder  3.15088 6.08352 26.8633
RightArm  -6.7027 -18.2024 40.2665
RightForeArm  80.1306 79.653 84.4533
RightHand  -0.301992 7.94156 -2.99553
LeftUpLeg  3.09052 2.30789 4.10366
LeftLeg  -0.870219 11.3433 -0.745778
LeftFoot  -0.628058 0.398062 -4.20522
LeftToes  4.7643e-008 1.47522e-008 1.32869e-009
123
root  -4.04785 40.9219 -1.06052 -2.41618 -86.311 2.02409
RightUpLeg  5.08491 -1.83287 0.594461
RightLeg  -2.57901 -25.8448 2.73693
RightFoot  -1.57669 -0.0394164 0.335689
RightToes  -3.10678e-008 1.75238e-005 3.56266e-009
Spine  -1.97434 0.850965 -6.74264
Spine1  0.504582 -0.495882 9.57929
HEad  -13.6731 -5.16901 0.231017
LeftShoulder1  1.9797 -3.20335 -23.252
LeftArm  -21.945 -10.5119 -43.5398
LeftForeArm  124.376 -78.8987 -118.304
LeftHand  -0.601783 -3.66732 7.96937
RightShoulder  3.255 6.31557 27.1587
RightArm  -6.8694 -17.6925 40.004
RightForeArm  79.5342 79.639 83.9216
RightHand  -0.318682 8.01475 -3.12618
LeftUpLeg  3.54475 2.19472 3.81711
LeftLeg  -1.23867 12.4721 -0.842866
LeftFoot  -0.616387 0.416569 -4.39826
LeftToes  4.7643e-008 1.47522e-008 1.32869e-009
124
root  -3.96478 40.929 -0.981079 -6.56409 -87.893 5.95323
RightUpLeg  4.57011 -1.83635 0.325693
RightLeg  -1.38068 -23.9994 2.04321
RightFoot  -1.62661 -0.0615266 0.592651
RightToes  -3.10678e-008 1.75238e-005 3.56266e-009
Spine  -1.36621 1.12049 -6.48944
Spine1  0.0860073 -0.199014 9.35108
HEad  -13.2574 -5.56895 0.65684
LeftShoulder1  2.06703 -3.46417 -23.4107
LeftArm  -21.7832 -10.1855 -43.0931
LeftForeArm  124.474 -78.9468 -118.024
LeftHand  -0.557749 -3.71634 7.37178
RightShoulder  3.21047 6.2508 26.9132
RightArm  -6.69073 -17.0341 40.2707
RightForeArm  77.7186 79.609 81.678
RightHand  -0.240737 8.01125 -2.45576
LeftUpLeg  4.12018 2.12191 3.55288
LeftLeg  -1.67192 14.2727 -0.992668
LeftFoot  -0.590506 0.422199 -4.44912
LeftToes  4.7643e-008 1.47522e-008 1.32869e-009
125
root  -3.88512 40.9348 -0.908143 -8.03734 -89.7964 7.28842
RightUpLeg  4.2151 -1.59938 0.327187
RightLeg  -0.875248 -22.2333 1.6397
RightFoot  -1.45627 -0.078125 0.790113
RightToes  -3.10678e-008 1.75238e-005 3.56266e-009
Spine  -1.60404 1.15777 -6.33867
Spine1  0.782705 -0.21428 9.28094
HEad  -12.805 -5.93806 0.938015
LeftShoulder1  2.0921 -3.56756 -23.3265
LeftArm  -21.6491 -10.1472 -42.7791
LeftForeArm  123.818 -78.9829 -117.56
LeftHand  -0.593305 -3.51994 7.98171
RightShoulder  3.21569 6.25215 26.9629
RightArm  -6.81904 -16.716 40.4764
RightForeArm  78.1864 79.6194 82.2036
RightHand  -0.250796 8.05483 -2.53511
LeftUpLeg  4.50863 2.29162 3.55015
LeftLeg  -1.8138 16.0876 -1.177
LeftFoot  -0.661486 0.410848 -4.35286
LeftToes  4.7643e-008 1.47522e-008 1.32869e-009
126
root  -3.78844 40.937 -0.803601 179.702 -87.6083 179.503
RightUpLeg  3.70112 -1.44627 0.244387
RightLeg  -0.470759 -19.7756 1.39333
RightFoot  -1.21376 -0.0838237 0.847203
RightToes  -3.10678e-008 1.75238e-005 3.56266e-009
Spine  -1.22037 1.11417 -5.97234
Spine1  0.473201 -0.21027 8.86972
HEad  -12.2054 -6.20011 1.65137
LeftShoulder1  2.16327 -3.8173 -23.2879
LeftArm  -21.4597 -10.3488 -42.3387
LeftForeArm  122.864 -79.0828 -116.53
LeftHand  -0.584041 -3.67775 7.73335
RightShoulder  3.27108 6.33141 27.2717
RightArm  -6.93435 -16.3331 40.5725
RightForeArm  78.0093 79.6108 82.2148
RightHand  -0.210863 7.98072 -2.20129
LeftUpLeg  4.85934 2.42601 3.47165
LeftLeg  -1.97364 18.488 -1.38924
LeftFoot  -0.734584 0.390246 -4.15647
LeftToes  4.7643e-008 1.47522e-008 1.32869e-009
